<?xml version="1.0" encoding="utf-8"?><svg xmlns="http://www.w3.org/2000/svg" xmlns:xlink="http://www.w3.org/1999/xlink"><symbol viewBox="0 0 15.5 15.5" id="Pinterest" xmlns="http://www.w3.org/2000/svg"><desc>Created with Pixso.</desc><defs/><path d="M7.75 0C12.03 0 15.5 3.46 15.5 7.75C15.5 12.03 12.03 15.5 7.75 15.5C6.93 15.5 6.15 15.4 5.43 15.15C5.75 14.65 6.21 13.81 6.4 13.12C6.5 12.78 6.87 11.28 6.87 11.28C7.12 11.78 7.87 12.18 8.65 12.18C11 12.18 12.68 10.03 12.68 7.37C12.68 4.81 10.59 2.87 7.9 2.87C4.56 2.87 2.78 5.12 2.78 7.56C2.78 8.71 3.37 10.12 4.34 10.59C4.5 10.65 4.59 10.62 4.62 10.46C4.62 10.37 4.78 9.84 4.84 9.59C4.84 9.53 4.84 9.43 4.78 9.37C4.46 9 4.21 8.28 4.21 7.59C4.21 5.9 5.5 4.25 7.71 4.25C9.59 4.25 10.93 5.53 10.93 7.4C10.93 9.5 9.87 10.93 8.5 10.93C7.75 10.93 7.18 10.31 7.34 9.56C7.56 8.62 8 7.62 8 6.96C8 6.37 7.68 5.87 7.03 5.87C6.25 5.87 5.62 6.68 5.62 7.75C5.62 8.43 5.84 8.9 5.84 8.9C5.84 8.9 5.09 12.15 4.93 12.75C4.78 13.43 4.84 14.37 4.9 14.96C2.03 13.84 0 11.06 0 7.75C0 3.46 3.46 0 7.75 0Z" fill-opacity="1.000000" fill-rule="evenodd"/></symbol><symbol viewBox="0 0 26 26" id="close" xmlns="http://www.w3.org/2000/svg"><desc>Created with Pixso.</desc><defs/><path d="M14.43 13L25.7 1.73C26.09 1.33 26.09 0.69 25.7 0.29C25.3 -0.1 24.66 -0.1 24.26 0.29L13 11.56L1.73 0.29C1.33 -0.1 0.69 -0.1 0.29 0.29C-0.1 0.69 -0.1 1.33 0.29 1.73L11.56 13L0.29 24.26C-0.1 24.66 -0.1 25.3 0.29 25.7C0.49 25.9 0.75 26 1.01 26C1.27 26 1.53 25.9 1.73 25.7L13 14.43L24.26 25.7C24.46 25.9 24.72 26 24.98 26C25.24 26 25.5 25.9 25.7 25.7C26.09 25.3 26.09 24.66 25.7 24.26L14.43 13Z" fill-opacity="1.000000" fill-rule="evenodd"/><path d="M25.7 1.73C26.09 1.33 26.09 0.69 25.7 0.29C25.3 -0.1 24.66 -0.1 24.26 0.29L13 11.56L1.73 0.29C1.33 -0.1 0.69 -0.1 0.29 0.29C-0.1 0.69 -0.1 1.33 0.29 1.73L11.56 13L0.29 24.26C-0.1 24.66 -0.1 25.3 0.29 25.7C0.49 25.9 0.75 26 1.01 26C1.27 26 1.53 25.9 1.73 25.7L13 14.43L24.26 25.7C24.46 25.9 24.72 26 24.98 26C25.24 26 25.5 25.9 25.7 25.7C26.09 25.3 26.09 24.66 25.7 24.26L14.43 13L25.7 1.73Z" stroke-opacity="0" stroke-width="0.000000"/></symbol><symbol viewBox="0 0 16 12" id="envelope" xmlns="http://www.w3.org/2000/svg"><desc>Created with Pixso.</desc><defs/><path d="M1.5 0L14.5 0C15.31 0 16 0.68 16 1.5L16 10.5C16 11.34 15.31 12 14.5 12L1.5 12C0.65 12 0 11.34 0 10.5L0 1.5C0 0.68 0.65 0 1.5 0ZM14.5 2.78L14.5 1.5L1.5 1.5L1.5 2.78C2.18 3.37 3.31 4.25 5.68 6.12C5.78 6.19 5.9 6.29 6.02 6.39C6.58 6.86 7.38 7.52 8 7.5C8.58 7.52 9.37 6.87 9.93 6.4C10.06 6.29 10.18 6.2 10.28 6.12C12.65 4.25 13.78 3.37 14.5 2.78ZM1.5 4.71L1.5 10.5L14.5 10.5L14.5 4.71C13.78 5.28 12.75 6.09 11.21 7.31C11.09 7.4 10.95 7.51 10.8 7.63C10.08 8.22 9.08 9.02 8 9C6.84 9.02 5.78 8.15 5.07 7.57C4.95 7.47 4.84 7.38 4.75 7.31C3.21 6.09 2.18 5.28 1.5 4.71Z" fill-opacity="1.000000" fill-rule="evenodd"/></symbol><symbol viewBox="0 0 15.5 15.4062" id="facebook" xmlns="http://www.w3.org/2000/svg"><desc>Created with Pixso.</desc><defs/><path d="M7.75 0C12.03 0 15.5 3.46 15.5 7.75C15.5 11.62 12.65 14.84 8.93 15.4L8.93 10L10.75 10L11.09 7.75L8.93 7.75L8.93 6.31C8.93 5.68 9.25 5.09 10.21 5.09L11.18 5.09L11.18 3.18C11.18 3.18 10.31 3.03 9.43 3.03C7.68 3.03 6.53 4.12 6.53 6.06L6.53 7.75L4.56 7.75L4.56 10L6.53 10L6.53 15.4C2.81 14.84 0 11.62 0 7.75C0 3.46 3.46 0 7.75 0Z" fill-opacity="1.000000" fill-rule="evenodd"/></symbol><symbol viewBox="0 0 37 29" id="icon_menu" xmlns="http://www.w3.org/2000/svg"><desc>Created with Pixso.</desc><defs/><path d="M35.45 26L1.54 26C0.69 26 0 26.67 0 27.5C0 28.32 0.69 29 1.54 29L35.45 29C36.3 29 37 28.32 37 27.5C37 26.67 36.3 26 35.45 26Z" fill-opacity="1.000000" fill-rule="nonzero"/><path d="M35.5 0L14.5 0C13.67 0 13 0.67 13 1.5C13 2.32 13.67 3 14.5 3L35.5 3C36.32 3 37 2.32 37 1.5C37 0.67 36.32 0 35.5 0Z" fill-opacity="1.000000" fill-rule="nonzero"/><path d="M35.45 9L1.54 9C0.69 9 0 9.67 0 10.5C0 11.32 0.69 12 1.54 12L35.45 12C36.3 12 37 11.32 37 10.5C37 9.67 36.3 9 35.45 9Z" fill-opacity="1.000000" fill-rule="nonzero"/><path d="M35.5 18L14.5 18C13.67 18 13 18.67 13 19.5C13 20.32 13.67 21 14.5 21L35.5 21C36.32 21 37 20.32 37 19.5C37 18.67 36.32 18 35.5 18Z" fill-opacity="1.000000" fill-rule="nonzero"/></symbol><symbol viewBox="0 0 14 14" id="instagram" xmlns="http://www.w3.org/2000/svg"><desc>Created with Pixso.</desc><defs/><path d="M12.82 1.17C13.64 1.98 13.89 2.98 13.95 4.1C14.01 5.26 14.01 8.73 13.95 9.89C13.89 11.01 13.64 11.98 12.82 12.82C12.01 13.64 11.01 13.89 9.89 13.95C8.73 14.01 5.26 14.01 4.1 13.95C2.98 13.89 2.01 13.64 1.17 12.82C0.35 11.98 0.1 11.01 0.04 9.89C-0.02 8.73 -0.02 5.26 0.04 4.1C0.1 2.98 0.35 1.98 1.17 1.17C2.01 0.35 2.98 0.1 4.1 0.04C5.26 -0.02 8.73 -0.02 9.89 0.04C11.01 0.1 12.01 0.35 12.82 1.17ZM11.14 12.45C11.73 12.2 12.23 11.73 12.45 11.1C12.77 10.33 12.75 8.64 12.73 7.51C12.73 7.32 12.73 7.13 12.73 6.98C12.73 6.83 12.73 6.65 12.73 6.46C12.75 5.35 12.77 3.65 12.45 2.85C12.2 2.26 11.73 1.76 11.14 1.54C10.34 1.22 8.64 1.24 7.53 1.26C7.34 1.26 7.16 1.26 7.01 1.26C6.86 1.26 6.67 1.26 6.48 1.26C5.35 1.24 3.66 1.22 2.89 1.54C2.26 1.79 1.79 2.26 1.54 2.85C1.22 3.65 1.24 5.35 1.26 6.46C1.26 6.65 1.26 6.83 1.26 6.98C1.26 7.13 1.26 7.32 1.26 7.51C1.24 8.64 1.22 10.33 1.54 11.1C1.79 11.73 2.26 12.2 2.89 12.45C3.66 12.77 5.35 12.75 6.48 12.73C6.67 12.73 6.86 12.73 7.01 12.73C7.16 12.73 7.34 12.73 7.53 12.73C8.64 12.75 10.34 12.77 11.14 12.45ZM10.73 2.42C11.2 2.42 11.57 2.79 11.57 3.26C11.57 3.73 11.2 4.1 10.73 4.1C10.26 4.1 9.89 3.73 9.89 3.26C9.89 2.79 10.26 2.42 10.73 2.42ZM3.42 6.98C3.42 5.01 5.01 3.39 7.01 3.39C8.98 3.39 10.6 5.01 10.6 6.98C10.6 8.98 8.98 10.57 7.01 10.57C5.01 10.57 3.42 8.98 3.42 6.98ZM4.67 6.98C4.67 8.29 5.73 9.32 7.01 9.32C8.29 9.32 9.32 8.29 9.32 6.98C9.32 5.7 8.29 4.67 7.01 4.67C5.7 4.67 4.67 5.7 4.67 6.98Z" fill-opacity="1.000000" fill-rule="evenodd"/></symbol><symbol viewBox="0 0 14 14" id="whatsapp" xmlns="http://www.w3.org/2000/svg"><desc>Created with Pixso.</desc><defs/><path d="M6.96 0C8.84 0 10.59 0.75 11.87 2.06C13.18 3.37 14 5.09 14 6.96C14 10.78 10.81 13.9 6.96 13.9C5.81 13.9 4.68 13.59 3.65 13.06L0 14L0.96 10.4C0.37 9.37 0.03 8.18 0.03 6.93C0.03 3.12 3.15 0 6.96 0ZM4.03 11.9C4.93 12.43 5.93 12.71 6.96 12.71C10.15 12.71 12.81 10.12 12.81 6.96C12.81 5.4 12.15 3.96 11.06 2.87C9.96 1.78 8.53 1.18 7 1.18C3.81 1.18 1.21 3.78 1.21 6.93C1.21 8.03 1.53 9.09 2.09 10.03L2.25 10.25L1.65 12.37L3.84 11.78L4.03 11.9ZM8.96 7.84C9.12 7.9 9.96 8.31 10.15 8.4C10.31 8.5 10.43 8.53 10.46 8.62C10.53 8.68 10.53 9.03 10.37 9.43C10.21 9.84 9.53 10.21 9.21 10.25C8.65 10.34 8.21 10.31 7.12 9.81C5.37 9.06 4.25 7.31 4.15 7.21C4.06 7.09 3.46 6.28 3.46 5.4C3.46 4.56 3.9 4.15 4.06 3.96C4.21 3.78 4.4 3.75 4.53 3.75L4.84 3.75C4.85 3.75 4.86 3.74 4.87 3.74C4.98 3.74 5.1 3.74 5.25 4.06C5.37 4.4 5.75 5.25 5.78 5.34C5.81 5.43 5.84 5.53 5.78 5.65C5.64 5.95 5.48 6.1 5.37 6.21C5.24 6.35 5.17 6.42 5.28 6.59C5.96 7.75 6.62 8.15 7.65 8.65C7.81 8.75 7.9 8.71 8.03 8.62C8.12 8.5 8.46 8.09 8.56 7.93C8.68 7.75 8.81 7.78 8.96 7.84Z" fill-opacity="1.000000" fill-rule="evenodd"/></symbol><symbol viewBox="0 0 17.0938 12" id="youtube" xmlns="http://www.w3.org/2000/svg"><desc>Created with Pixso.</desc><defs/><path d="M15.21 0.37C15.93 0.56 16.53 1.15 16.71 1.9C17.09 3.21 17.09 6.03 17.09 6.03C17.09 6.03 17.09 8.81 16.71 10.15C16.53 10.9 15.93 11.46 15.21 11.65C13.87 12 8.56 12 8.56 12C8.56 12 3.21 12 1.87 11.65C1.15 11.46 0.56 10.9 0.37 10.15C0 8.81 0 6.03 0 6.03C0 6.03 0 3.21 0.37 1.9C0.56 1.15 1.15 0.56 1.87 0.37C3.21 0 8.56 0 8.56 0C8.56 0 13.87 0 15.21 0.37ZM11.25 6.03L6.81 3.5L6.81 8.56L11.25 6.03Z" fill-opacity="1.000000" fill-rule="evenodd"/></symbol></svg>