<?xml version="1.0" encoding="utf-8"?><svg xmlns="http://www.w3.org/2000/svg" xmlns:xlink="http://www.w3.org/1999/xlink"><symbol viewBox="0 0 15.5 15.5" id="Pinterest" xmlns="http://www.w3.org/2000/svg"><desc>Created with Pixso.</desc><defs/><path d="M7.75 0C12.03 0 15.5 3.46 15.5 7.75C15.5 12.03 12.03 15.5 7.75 15.5C6.93 15.5 6.15 15.4 5.43 15.15C5.75 14.65 6.21 13.81 6.4 13.12C6.5 12.78 6.87 11.28 6.87 11.28C7.12 11.78 7.87 12.18 8.65 12.18C11 12.18 12.68 10.03 12.68 7.37C12.68 4.81 10.59 2.87 7.9 2.87C4.56 2.87 2.78 5.12 2.78 7.56C2.78 8.71 3.37 10.12 4.34 10.59C4.5 10.65 4.59 10.62 4.62 10.46C4.62 10.37 4.78 9.84 4.84 9.59C4.84 9.53 4.84 9.43 4.78 9.37C4.46 9 4.21 8.28 4.21 7.59C4.21 5.9 5.5 4.25 7.71 4.25C9.59 4.25 10.93 5.53 10.93 7.4C10.93 9.5 9.87 10.93 8.5 10.93C7.75 10.93 7.18 10.31 7.34 9.56C7.56 8.62 8 7.62 8 6.96C8 6.37 7.68 5.87 7.03 5.87C6.25 5.87 5.62 6.68 5.62 7.75C5.62 8.43 5.84 8.9 5.84 8.9C5.84 8.9 5.09 12.15 4.93 12.75C4.78 13.43 4.84 14.37 4.9 14.96C2.03 13.84 0 11.06 0 7.75C0 3.46 3.46 0 7.75 0Z" fill-opacity="1.000000" fill-rule="evenodd"/></symbol><symbol viewBox="0 0 26 26" id="close" xmlns="http://www.w3.org/2000/svg"><desc>Created with Pixso.</desc><defs/><path d="M14.43 13L25.7 1.73C26.09 1.33 26.09 0.69 25.7 0.29C25.3 -0.1 24.66 -0.1 24.26 0.29L13 11.56L1.73 0.29C1.33 -0.1 0.69 -0.1 0.29 0.29C-0.1 0.69 -0.1 1.33 0.29 1.73L11.56 13L0.29 24.26C-0.1 24.66 -0.1 25.3 0.29 25.7C0.49 25.9 0.75 26 1.01 26C1.27 26 1.53 25.9 1.73 25.7L13 14.43L24.26 25.7C24.46 25.9 24.72 26 24.98 26C25.24 26 25.5 25.9 25.7 25.7C26.09 25.3 26.09 24.66 25.7 24.26L14.43 13Z" fill-opacity="1.000000" fill-rule="evenodd"/><path d="M25.7 1.73C26.09 1.33 26.09 0.69 25.7 0.29C25.3 -0.1 24.66 -0.1 24.26 0.29L13 11.56L1.73 0.29C1.33 -0.1 0.69 -0.1 0.29 0.29C-0.1 0.69 -0.1 1.33 0.29 1.73L11.56 13L0.29 24.26C-0.1 24.66 -0.1 25.3 0.29 25.7C0.49 25.9 0.75 26 1.01 26C1.27 26 1.53 25.9 1.73 25.7L13 14.43L24.26 25.7C24.46 25.9 24.72 26 24.98 26C25.24 26 25.5 25.9 25.7 25.7C26.09 25.3 26.09 24.66 25.7 24.26L14.43 13L25.7 1.73Z" stroke-opacity="0" stroke-width="0.000000"/></symbol><symbol viewBox="0 0 16 12" id="envelope" xmlns="http://www.w3.org/2000/svg"><desc>Created with Pixso.</desc><defs/><path d="M1.5 0L14.5 0C15.31 0 16 0.68 16 1.5L16 10.5C16 11.34 15.31 12 14.5 12L1.5 12C0.65 12 0 11.34 0 10.5L0 1.5C0 0.68 0.65 0 1.5 0ZM14.5 2.78L14.5 1.5L1.5 1.5L1.5 2.78C2.18 3.37 3.31 4.25 5.68 6.12C5.78 6.19 5.9 6.29 6.02 6.39C6.58 6.86 7.38 7.52 8 7.5C8.58 7.52 9.37 6.87 9.93 6.4C10.06 6.29 10.18 6.2 10.28 6.12C12.65 4.25 13.78 3.37 14.5 2.78ZM1.5 4.71L1.5 10.5L14.5 10.5L14.5 4.71C13.78 5.28 12.75 6.09 11.21 7.31C11.09 7.4 10.95 7.51 10.8 7.63C10.08 8.22 9.08 9.02 8 9C6.84 9.02 5.78 8.15 5.07 7.57C4.95 7.47 4.84 7.38 4.75 7.31C3.21 6.09 2.18 5.28 1.5 4.71Z" fill-opacity="1.000000" fill-rule="evenodd"/></symbol><symbol viewBox="0 0 15.5 15.4062" id="facebook" xmlns="http://www.w3.org/2000/svg"><desc>Created with Pixso.</desc><defs/><path d="M7.75 0C12.03 0 15.5 3.46 15.5 7.75C15.5 11.62 12.65 14.84 8.93 15.4L8.93 10L10.75 10L11.09 7.75L8.93 7.75L8.93 6.31C8.93 5.68 9.25 5.09 10.21 5.09L11.18 5.09L11.18 3.18C11.18 3.18 10.31 3.03 9.43 3.03C7.68 3.03 6.53 4.12 6.53 6.06L6.53 7.75L4.56 7.75L4.56 10L6.53 10L6.53 15.4C2.81 14.84 0 11.62 0 7.75C0 3.46 3.46 0 7.75 0Z" fill-opacity="1.000000" fill-rule="evenodd"/></symbol><symbol viewBox="0 0 37 29" id="icon_menu" xmlns="http://www.w3.org/2000/svg"><desc>Created with Pixso.</desc><defs/><path d="M35.45 26L1.54 26C0.69 26 0 26.67 0 27.5C0 28.32 0.69 29 1.54 29L35.45 29C36.3 29 37 28.32 37 27.5C37 26.67 36.3 26 35.45 26Z" fill-opacity="1.000000" fill-rule="nonzero"/><path d="M35.5 0L14.5 0C13.67 0 13 0.67 13 1.5C13 2.32 13.67 3 14.5 3L35.5 3C36.32 3 37 2.32 37 1.5C37 0.67 36.32 0 35.5 0Z" fill-opacity="1.000000" fill-rule="nonzero"/><path d="M35.45 9L1.54 9C0.69 9 0 9.67 0 10.5C0 11.32 0.69 12 1.54 12L35.45 12C36.3 12 37 11.32 37 10.5C37 9.67 36.3 9 35.45 9Z" fill-opacity="1.000000" fill-rule="nonzero"/><path d="M35.5 18L14.5 18C13.67 18 13 18.67 13 19.5C13 20.32 13.67 21 14.5 21L35.5 21C36.32 21 37 20.32 37 19.5C37 18.67 36.32 18 35.5 18Z" fill-opacity="1.000000" fill-rule="nonzero"/></symbol><symbol viewBox="0 0 14 14" id="instagram" xmlns="http://www.w3.org/2000/svg"><desc>Created with Pixso.</desc><defs/><path d="M12.82 1.17C13.64 1.98 13.89 2.98 13.95 4.1C14.01 5.26 14.01 8.73 13.95 9.89C13.89 11.01 13.64 11.98 12.82 12.82C12.01 13.64 11.01 13.89 9.89 13.95C8.73 14.01 5.26 14.01 4.1 13.95C2.98 13.89 2.01 13.64 1.17 12.82C0.35 11.98 0.1 11.01 0.04 9.89C-0.02 8.73 -0.02 5.26 0.04 4.1C0.1 2.98 0.35 1.98 1.17 1.17C2.01 0.35 2.98 0.1 4.1 0.04C5.26 -0.02 8.73 -0.02 9.89 0.04C11.01 0.1 12.01 0.35 12.82 1.17ZM11.14 12.45C11.73 12.2 12.23 11.73 12.45 11.1C12.77 10.33 12.75 8.64 12.73 7.51C12.73 7.32 12.73 7.13 12.73 6.98C12.73 6.83 12.73 6.65 12.73 6.46C12.75 5.35 12.77 3.65 12.45 2.85C12.2 2.26 11.73 1.76 11.14 1.54C10.34 1.22 8.64 1.24 7.53 1.26C7.34 1.26 7.16 1.26 7.01 1.26C6.86 1.26 6.67 1.26 6.48 1.26C5.35 1.24 3.66 1.22 2.89 1.54C2.26 1.79 1.79 2.26 1.54 2.85C1.22 3.65 1.24 5.35 1.26 6.46C1.26 6.65 1.26 6.83 1.26 6.98C1.26 7.13 1.26 7.32 1.26 7.51C1.24 8.64 1.22 10.33 1.54 11.1C1.79 11.73 2.26 12.2 2.89 12.45C3.66 12.77 5.35 12.75 6.48 12.73C6.67 12.73 6.86 12.73 7.01 12.73C7.16 12.73 7.34 12.73 7.53 12.73C8.64 12.75 10.34 12.77 11.14 12.45ZM10.73 2.42C11.2 2.42 11.57 2.79 11.57 3.26C11.57 3.73 11.2 4.1 10.73 4.1C10.26 4.1 9.89 3.73 9.89 3.26C9.89 2.79 10.26 2.42 10.73 2.42ZM3.42 6.98C3.42 5.01 5.01 3.39 7.01 3.39C8.98 3.39 10.6 5.01 10.6 6.98C10.6 8.98 8.98 10.57 7.01 10.57C5.01 10.57 3.42 8.98 3.42 6.98ZM4.67 6.98C4.67 8.29 5.73 9.32 7.01 9.32C8.29 9.32 9.32 8.29 9.32 6.98C9.32 5.7 8.29 4.67 7.01 4.67C5.7 4.67 4.67 5.7 4.67 6.98Z" fill-opacity="1.000000" fill-rule="evenodd"/></symbol><symbol viewBox="0 0 10 17" id="next-arrow" xmlns="http://www.w3.org/2000/svg"><desc>Created with Pixso.</desc><defs/><path id="fPath" d="M9.52 7.29C9.44 7.2 9.35 7.13 9.25 7.07L2.78 0.48C2.15 -0.17 1.13 -0.17 0.5 0.48C-0.13 1.12 -0.13 2.16 0.5 2.81L6.07 8.48L0.47 14.18C-0.16 14.83 -0.16 15.87 0.47 16.51C0.78 16.83 1.2 17 1.61 17C2.02 17 2.44 16.83 2.75 16.51L9.25 9.89C9.35 9.83 9.44 9.76 9.52 9.67C9.85 9.34 10 8.91 9.99 8.48C10 8.05 9.85 7.62 9.52 7.29Z" fill-opacity="1.000000" fill-rule="nonzero"/></symbol><symbol viewBox="0 0 80 80" id="play" xmlns="http://www.w3.org/2000/svg"><desc>Created with Pixso.</desc><defs><filter id="hfilter_30_11_dd" x="26.750000" y="21.343018" width="36.250000" height="40.313965" filterUnits="userSpaceOnUse" color-interpolation-filters="sRGB"><feFlood flood-opacity="0" result="BackgroundImageFix"/><feColorMatrix in="SourceAlpha" type="matrix" values="0 0 0 0 0 0 0 0 0 0 0 0 0 0 0 0 0 0 127 0" result="hardAlpha"/><feOffset dx="0" dy="1"/><feGaussianBlur stdDeviation="1.33333"/><feComposite in2="hardAlpha" operator="out" k2="-1" k3="1"/><feColorMatrix type="matrix" values="0 0 0 0 0 0 0 0 0 0 0 0 0 0 0 0 0 0 0.85 0"/><feBlend mode="normal" in2="BackgroundImageFix" result="effect_dropShadow_1"/><feBlend mode="normal" in="SourceGraphic" in2="effect_dropShadow_1" result="shape"/></filter></defs><path id="hOval" d="M40 80C62.09 80 80 62.09 80 40C80 17.9 62.09 0 40 0C17.9 0 0 17.9 0 40C0 62.09 17.9 80 40 80Z" fill-opacity="0.400000" fill-rule="evenodd"/><path id="hOval" d="M80 40C80 17.9 62.09 0 40 0C17.9 0 0 17.9 0 40C0 62.09 17.9 80 40 80C62.09 80 80 62.09 80 40Z" stroke-opacity="0" stroke-width="0.000000"/><g filter="url(#hfilter_30_11_dd)"><path id="hPolygon" d="M58.5 41.36L32.25 56.52C31.58 56.9 30.75 56.42 30.75 55.65L30.75 25.34C30.75 24.57 31.58 24.09 32.25 24.47L58.5 39.63C59.16 40.01 59.16 40.98 58.5 41.36Z" fill-opacity="0.930000" fill-rule="evenodd"/></g></symbol><symbol viewBox="0 0 10 17" id="prev-arrow" xmlns="http://www.w3.org/2000/svg"><desc>Created with Pixso.</desc><defs/><path d="M0.47 7.29C0.55 7.2 0.64 7.13 0.74 7.07L7.21 0.48C7.84 -0.17 8.86 -0.17 9.49 0.48C10.12 1.12 10.12 2.16 9.49 2.81L3.92 8.48L9.52 14.18C10.15 14.83 10.15 15.87 9.52 16.51C9.21 16.83 8.79 17 8.38 17C7.97 17 7.55 16.83 7.24 16.51L0.74 9.89C0.64 9.83 0.55 9.76 0.47 9.67C0.14 9.34 -0.01 8.91 0 8.48C-0.01 8.05 0.14 7.62 0.47 7.29Z" fill-opacity="1.000000" fill-rule="nonzero"/></symbol><symbol viewBox="0 0 17 17" id="search-icon" xmlns="http://www.w3.org/2000/svg"><desc>Created with Pixso.</desc><defs/><path id="jShape" d="M16.7922 15.7908L11.958 10.9565C12.8943 9.7998 13.4583 8.33008 13.4583 6.72925C13.4583 3.01904 10.4392 0 6.729 0C3.0188 0 0 3.0188 0 6.72925C0 10.4395 3.0188 13.4583 6.729 13.4583C8.32983 13.4583 9.7998 12.8945 10.9563 11.958L15.7908 16.7925C15.9287 16.9307 16.1101 17 16.2915 17C16.4729 17 16.6541 16.9307 16.7922 16.7925C17.0693 16.5154 17.0693 16.0679 16.7922 15.7908ZM1.41675 6.72925C1.41675 9.65894 3.79956 12.0417 6.729 12.0417C9.65869 12.0417 12.0415 9.65894 12.0415 6.72925C12.0415 3.79956 9.65869 1.41675 6.729 1.41675C3.79956 1.41675 1.41675 3.79956 1.41675 6.72925Z" clip-rule="evenodd" fill-opacity="1.000000" fill-rule="evenodd"/></symbol><symbol viewBox="0 0 14 14" id="whatsapp" xmlns="http://www.w3.org/2000/svg"><desc>Created with Pixso.</desc><defs/><path d="M6.96 0C8.84 0 10.59 0.75 11.87 2.06C13.18 3.37 14 5.09 14 6.96C14 10.78 10.81 13.9 6.96 13.9C5.81 13.9 4.68 13.59 3.65 13.06L0 14L0.96 10.4C0.37 9.37 0.03 8.18 0.03 6.93C0.03 3.12 3.15 0 6.96 0ZM4.03 11.9C4.93 12.43 5.93 12.71 6.96 12.71C10.15 12.71 12.81 10.12 12.81 6.96C12.81 5.4 12.15 3.96 11.06 2.87C9.96 1.78 8.53 1.18 7 1.18C3.81 1.18 1.21 3.78 1.21 6.93C1.21 8.03 1.53 9.09 2.09 10.03L2.25 10.25L1.65 12.37L3.84 11.78L4.03 11.9ZM8.96 7.84C9.12 7.9 9.96 8.31 10.15 8.4C10.31 8.5 10.43 8.53 10.46 8.62C10.53 8.68 10.53 9.03 10.37 9.43C10.21 9.84 9.53 10.21 9.21 10.25C8.65 10.34 8.21 10.31 7.12 9.81C5.37 9.06 4.25 7.31 4.15 7.21C4.06 7.09 3.46 6.28 3.46 5.4C3.46 4.56 3.9 4.15 4.06 3.96C4.21 3.78 4.4 3.75 4.53 3.75L4.84 3.75C4.85 3.75 4.86 3.74 4.87 3.74C4.98 3.74 5.1 3.74 5.25 4.06C5.37 4.4 5.75 5.25 5.78 5.34C5.81 5.43 5.84 5.53 5.78 5.65C5.64 5.95 5.48 6.1 5.37 6.21C5.24 6.35 5.17 6.42 5.28 6.59C5.96 7.75 6.62 8.15 7.65 8.65C7.81 8.75 7.9 8.71 8.03 8.62C8.12 8.5 8.46 8.09 8.56 7.93C8.68 7.75 8.81 7.78 8.96 7.84Z" fill-opacity="1.000000" fill-rule="evenodd"/></symbol><symbol viewBox="0 0 38 34" id="works-sofa" xmlns="http://www.w3.org/2000/svg"><desc>Created with Pixso.</desc><defs/><path d="M36.3301 9.63026L35.7417 9.63026L35.7417 5.38065C35.7417 5.03702 35.4922 4.75842 35.1851 4.75842C34.8774 4.75842 34.6284 5.03702 34.6284 5.38065L34.6284 9.63026L34.04 9.63026C33.1191 9.63026 32.3701 10.4676 32.3701 11.4969L32.3701 14.4763C29.0103 14.4763 26.542 14.4755 24.7266 14.4749L24.7251 14.4749C19.7769 14.4734 19.6768 14.4733 19.5815 14.4951C19.5742 14.4968 19.5664 14.4987 19.5566 14.5007L19.5566 2.86218C19.5566 1.97017 20.2061 1.24443 21.0039 1.24443L33.1812 1.24443C33.8877 1.24443 34.4873 1.80798 34.6069 2.58467C34.6592 2.92332 34.9473 3.15039 35.2505 3.09215C35.5532 3.03374 35.7563 2.71193 35.7041 2.37329C35.4922 0.998032 34.4312 0 33.1812 0L21.0039 0C20.1929 0 19.4697 0.424011 19 1.08356C18.5303 0.424011 17.8071 0 16.9961 0L4.81885 0C3.40723 0 2.2583 1.284 2.2583 2.86218L2.2583 9.63026L1.66992 9.63026C0.749023 9.63026 0 10.4676 0 11.4969L0 23.0395C0 24.755 1.24854 26.1506 2.7832 26.1506L4.5166 26.1506L4.5166 32.2521C4.5166 33.2159 5.21826 34 6.08057 34C6.89697 34 7.58252 33.2866 7.64014 32.3759L8.03613 26.1505L11.2075 26.1505C11.5151 26.1505 11.7642 25.8719 11.7642 25.5283C11.7642 25.1847 11.5151 24.9061 11.2075 24.9061L2.7832 24.9061C1.8623 24.9061 1.11328 24.0687 1.11328 23.0394L1.11328 11.4969C1.11328 11.1538 1.36279 10.8747 1.66992 10.8747L3.95996 10.8747C4.22852 10.8747 4.45361 11.0884 4.50537 11.3716C4.5127 11.4121 4.5166 11.454 4.5166 11.4969L4.5166 14.4763L3.62012 14.4763C2.87207 14.4763 2.26367 15.1566 2.26367 15.9928L2.26367 19.5854C2.26367 20.4216 2.87207 21.1018 3.62012 21.1018L34.3799 21.1018C35.1279 21.1018 35.7363 20.4215 35.7363 19.5853L35.7363 15.9927C35.7363 15.1565 35.1279 14.4762 34.3799 14.4762L33.4834 14.4762L33.4834 11.4968C33.4834 11.4539 33.4873 11.412 33.4946 11.3716C33.5464 11.0882 33.7715 10.8746 34.04 10.8746L36.3301 10.8746C36.6372 10.8746 36.8867 11.1537 36.8867 11.4968L36.8867 23.0394C36.8867 24.0687 36.1377 24.9061 35.2168 24.9061L13.8052 24.9061C13.498 24.9061 13.2485 25.1847 13.2485 25.5283C13.2485 25.8719 13.498 26.1505 13.8052 26.1505L29.9639 26.1505L30.3599 32.3759C30.4175 33.2866 31.1025 34 31.9194 34C32.7817 34 33.4834 33.2159 33.4834 32.2521L33.4834 26.1506L35.2168 26.1506C36.7515 26.1506 38 24.755 38 23.0395L38 11.4969C38 10.4676 37.251 9.63026 36.3301 9.63026ZM3.32031 9.63734L3.91113 9.63734C4.83496 9.63734 5.58691 10.4754 5.58691 11.5057L5.58691 14.4878C8.9707 14.4878 11.4551 14.487 13.2808 14.4865L13.2808 14.4865C18.2559 14.485 18.3403 14.4849 18.4199 14.5057C18.4272 14.5077 18.4351 14.5098 18.4468 14.5122L18.4468 2.86313C18.4468 1.97031 17.7949 1.2439 16.9941 1.2439L4.77295 1.2439C3.97217 1.2439 3.32031 1.97031 3.32031 2.86313L3.32031 9.63734ZM3.32031 19.6299L3.32031 16.0288C3.32031 15.8784 3.43018 15.7561 3.56494 15.7561L18.2021 15.7561C18.3369 15.7561 18.4468 15.8784 18.4468 16.0288L18.4468 19.9024L3.56494 19.9024C3.43018 19.9024 3.32031 19.7802 3.32031 19.6299ZM34.6797 19.6299C34.6797 19.7802 34.5698 19.9024 34.4351 19.9024L19.5532 19.9024L19.5532 16.0287C19.5532 15.8783 19.6631 15.7561 19.7979 15.7561L34.4351 15.7561C34.5698 15.7561 34.6797 15.8784 34.6797 16.0287L34.6797 19.6299ZM6.6748 32.2862L7.00977 26.1219L5.90283 26.1219L5.90283 32.2504C5.90283 32.5292 6.07617 32.7561 6.28955 32.7561C6.49121 32.7561 6.66064 32.5497 6.6748 32.2862ZM31.7104 32.7561C31.9238 32.7561 32.0972 32.5293 32.0972 32.2504L32.0972 26.1219L30.9902 26.1219L31.3252 32.2862C31.3394 32.5497 31.5088 32.7561 31.7104 32.7561Z" clip-rule="evenodd" fill-opacity="1.000000" fill-rule="evenodd"/></symbol><symbol viewBox="0 0 38 26" id="works-tape" xmlns="http://www.w3.org/2000/svg"><desc>Created with Pixso.</desc><defs/><path id="mShape" d="M37.1836 19.1299L23.6699 19.1299L23.6699 15.312L25.8584 15.312C26.1738 15.312 26.4463 15.1824 26.625 14.9471C26.811 14.702 26.8774 14.367 26.8125 14.0052L26.0508 9.70825C25.9487 9.13581 25.5547 8.75128 25.0703 8.75128L23.0581 8.75128C21.4839 3.67052 17.0479 0 11.835 0C5.30908 0 0 5.75199 0 12.8221C0 19.8922 5.30908 25.6442 11.835 25.6442L22.6494 25.6442C23.2124 25.6442 23.6699 25.1489 23.6699 24.54L23.6699 23.4332L28.644 23.4332C28.9517 23.4332 29.2007 23.1627 29.2007 22.8288C29.2007 22.495 28.9517 22.2245 28.644 22.2245L23.6699 22.2245L23.6699 20.3387L36.8867 20.3387L36.8867 22.2245L30.9102 22.2245C30.603 22.2245 30.3535 22.495 30.3535 22.8288C30.3535 23.1627 30.603 23.4332 30.9102 23.4332L36.8867 23.4332L36.8867 25.3956C36.8867 25.7295 37.1357 26 37.4434 26C37.751 26 38 25.7295 38 25.3956L38 20.0156C38 19.5272 37.6338 19.1299 37.1836 19.1299ZM1.12744 13.4265L3.15576 13.4265L3.22852 13.427C3.24219 13.4271 3.25684 13.4273 3.27148 13.4273C3.42188 13.4273 3.62744 13.4122 3.79785 13.2245C3.98242 13.0209 3.97656 12.7793 3.97363 12.6495C3.97266 12.6075 3.97168 12.5641 3.97363 12.507C4.02832 10.8882 4.50342 9.33025 5.34814 8.00148C5.52246 7.72678 5.45898 7.35039 5.20605 7.16078C4.95312 6.97117 4.60596 7.04023 4.43164 7.31493C3.50928 8.76643 2.97217 10.4569 2.87207 12.2177L1.12744 12.2177C1.40918 6.29357 5.80859 1.52861 11.2783 1.22418L11.2783 3.11355C9.5249 3.22918 7.86084 3.89099 6.45166 5.03539C6.20557 5.23523 6.15527 5.61404 6.33936 5.88132C6.44873 6.04007 6.61572 6.12371 6.78516 6.12371C6.90137 6.12371 7.01855 6.08455 7.11816 6.00332C8.40479 4.9586 9.93457 4.37302 11.5425 4.30976C11.5952 4.30765 11.6367 4.30866 11.6699 4.30945L11.6729 4.30952L11.6753 4.30957C11.7969 4.31193 12.019 4.31626 12.2051 4.11669C12.395 3.91325 12.3931 3.67147 12.3921 3.49484L12.3921 3.49477L12.3916 1.22418C18.0459 1.53901 22.5566 6.62065 22.5566 12.822L22.5566 21.3362L12.2622 21.3362C11.7197 21.3362 11.2783 21.8149 11.2783 22.4032L11.2783 24.4199C5.80908 24.1155 1.40967 19.3506 1.12744 13.4265ZM25.6963 14.1033L24.9614 9.9599L23.3721 9.9599C23.5669 10.8805 23.6699 11.8386 23.6699 12.8221L23.6699 14.1033L25.6963 14.1033ZM12.3916 24.4355L22.5566 24.4355L22.5566 22.545L12.3916 22.545L12.3916 24.4355Z" clip-rule="evenodd" fill-opacity="1.000000" fill-rule="evenodd"/><path id="mShape" d="M17.1982 19.9333L11.876 19.9333C8.3833 19.9333 5.5415 17.017 5.5415 13.4322C5.5415 9.84874 8.3833 6.93335 11.876 6.93335C15.3677 6.93335 18.208 9.84882 18.208 13.4322L18.208 18.8937C18.208 19.467 17.7554 19.9333 17.1982 19.9333ZM17.0825 13.4322C17.0825 10.487 14.7471 8.09083 11.876 8.09083C9.00391 8.09083 6.66699 10.487 6.66699 13.4322C6.66699 16.3787 9.00391 18.7759 11.876 18.7759L17.0825 18.7759L17.0825 13.4322Z" clip-rule="evenodd" fill-opacity="1.000000" fill-rule="evenodd"/><path id="mShape" d="M13.8984 15.5999L9.85156 15.5999C9.22119 15.5999 8.7085 15.1112 8.7085 14.5102L8.7085 12.354C8.7085 11.7544 9.22119 11.2666 9.85156 11.2666L13.8984 11.2666C14.5288 11.2666 15.042 11.7544 15.042 12.354L15.042 14.5102C15.042 15.1111 14.5288 15.5999 13.8984 15.5999ZM13.7705 12.4773L9.97998 12.4773L9.97998 14.3893L13.7705 14.3893L13.7705 12.4773Z" clip-rule="evenodd" fill-opacity="1.000000" fill-rule="evenodd"/></symbol><symbol viewBox="0 0 41 42" id="works-tool" xmlns="http://www.w3.org/2000/svg"><desc>Created with Pixso.</desc><defs/><path d="M7.35791 35.0008C7.36426 35.0007 38.543 35.0134 38.543 35.0134C39.8975 35.0134 41 36.1173 41 37.4741L41 39.5393C41 40.8961 39.8979 42 38.543 42L22.438 42C22.1064 42 21.8374 41.7302 21.8374 41.3974C21.8374 41.0647 22.1064 40.7949 22.438 40.7949L34.5151 40.7949L34.5151 39.1092L7.97656 39.1092L7.97656 40.7956C8.02588 40.7952 19.4556 40.7949 19.4556 40.7949C19.7876 40.7949 20.0562 41.0647 20.0562 41.3974C20.0562 41.7302 19.7876 42 19.4556 42L7.23486 41.9887C6.69189 41.9887 6.36035 41.9503 5.59619 41.6079C5.59619 41.6079 2.20117 40.0881 0.545898 39.3446C0.21582 39.1989 0.000488281 38.8687 0 38.505C-0.000488281 38.1374 0.209961 37.8157 0.547852 37.6655L5.59619 35.4054C6.41309 35.0395 6.74414 34.9927 7.35791 35.0008ZM7.97656 37.9042L7.97656 36.2178C8.02637 36.2182 8.07715 36.2186 8.13135 36.2186L34.5151 36.2186L34.5151 37.9042L7.97656 37.9042ZM38.543 40.7949C39.2354 40.7949 39.7988 40.2317 39.7988 39.5393L39.7988 37.474C39.7988 36.7817 39.2354 36.2185 38.543 36.2185L35.7163 36.2185L35.7163 40.7949L38.543 40.7949ZM4.68652 37.1324L4.68652 39.8806C5.125 40.077 6.59668 40.7243 6.77539 40.7655L6.77539 36.248C6.59668 36.2892 4.68652 37.1324 4.68652 37.1324ZM3.48535 37.6702L3.48535 39.3424C2.86279 39.0636 2.24121 38.7855 1.61865 38.506L3.48535 37.6702Z" clip-rule="evenodd" fill-opacity="1.000000" fill-rule="evenodd"/><path d="M19.9414 31.9977L1.0625 32C0.476562 32 0 31.5284 0 30.9489L0 5.67694C0 5.09729 0.476562 4.62573 1.0625 4.62573L3.7085 4.62573L3.7085 0.992035C3.70557 0.579041 3.93311 0.214615 4.2876 0.0678253C4.6416 -0.0787964 5.0376 0.0154419 5.34668 0.320099L9.71387 4.62582L33.6948 4.62582L33.6948 3.15886C33.6948 2.58931 34.165 2.12599 34.7437 2.12599L37.4688 2.12599C39.416 2.12599 41 3.68922 41 5.61079L41 28.5151C41 30.4354 39.416 31.9976 37.4688 31.9976L22.7798 31.9976C22.4385 31.9976 22.1616 31.7241 22.1616 31.3867C22.1616 31.0493 22.4385 30.7758 22.7798 30.7758L37.4688 30.7758C38.7344 30.7758 39.7637 29.7617 39.7637 28.5151C39.7637 27.2686 38.7344 26.2545 37.4688 26.2545L34.7437 26.2545C34.165 26.2545 33.6948 25.7901 33.6948 25.2193L33.6948 5.84758L10.9531 5.84758L31.0459 25.6581C31.354 25.9619 31.4507 26.3515 31.3047 26.7004C31.1582 27.0502 30.79 27.2762 30.3662 27.2762L4.72705 27.2762C4.16553 27.2762 3.7085 26.8252 3.7085 26.2707L3.7085 5.84758L1.23682 5.84758L1.23682 30.7781L19.9414 30.7759C20.2827 30.7758 20.5596 31.0493 20.5596 31.3867C20.5596 31.7241 20.2827 31.9977 19.9414 31.9977ZM29.6968 26.0545L4.94531 1.65045L4.94531 26.0545L7.59766 26.0545L7.59766 25.1965C7.59766 24.8591 7.87451 24.5856 8.21631 24.5856C8.55762 24.5856 8.83447 24.8591 8.83447 25.1965L8.83447 26.0545L11.4893 26.0545L11.4893 24.3891C11.4893 24.0517 11.7661 23.7782 12.1074 23.7782C12.4487 23.7782 12.7256 24.0517 12.7256 24.3891L12.7256 26.0545L15.3784 26.0545L15.3784 25.1965C15.3784 24.8591 15.6553 24.5856 15.9966 24.5856C16.3379 24.5856 16.6147 24.8591 16.6147 25.1965L16.6147 26.0545L19.2695 26.0545L19.2695 24.3891C19.2695 24.0517 19.5464 23.7782 19.8882 23.7782C20.2295 23.7782 20.5063 24.0517 20.5063 24.3891L20.5063 26.0545L23.1587 26.0545L23.1587 25.1965C23.1587 24.8591 23.4355 24.5856 23.7769 24.5856C24.1187 24.5856 24.3955 24.8591 24.3955 25.1965L24.3955 26.0545L29.6968 26.0545ZM34.9316 3.34776L37.4688 3.34776C38.7339 3.34776 39.7632 4.36287 39.7632 5.61072L39.7632 25.87C39.146 25.3481 38.3438 25.0325 37.4688 25.0325L34.9316 25.0325L34.9316 3.34776Z" clip-rule="evenodd" fill-opacity="1.000000" fill-rule="evenodd"/><path d="M10.4888 22L16.688 22C16.9214 22 17.356 22 17.5225 21.587C17.6865 21.1808 17.4004 20.8881 17.1919 20.6744L11.0552 14.3914C10.8467 14.1763 10.561 13.8818 10.1646 14.0496C9.76172 14.2202 9.76172 14.666 9.76172 14.9056L9.76172 21.2544C9.76172 21.7074 10.0474 22 10.4888 22ZM15.7808 20.8518L10.8809 15.8349L10.8809 20.8518L15.7808 20.8518Z" clip-rule="evenodd" fill-opacity="1.000000" fill-rule="evenodd"/></symbol><symbol viewBox="0 0 17.0938 12" id="youtube" xmlns="http://www.w3.org/2000/svg"><desc>Created with Pixso.</desc><defs/><path d="M15.21 0.37C15.93 0.56 16.53 1.15 16.71 1.9C17.09 3.21 17.09 6.03 17.09 6.03C17.09 6.03 17.09 8.81 16.71 10.15C16.53 10.9 15.93 11.46 15.21 11.65C13.87 12 8.56 12 8.56 12C8.56 12 3.21 12 1.87 11.65C1.15 11.46 0.56 10.9 0.37 10.15C0 8.81 0 6.03 0 6.03C0 6.03 0 3.21 0.37 1.9C0.56 1.15 1.15 0.56 1.87 0.37C3.21 0 8.56 0 8.56 0C8.56 0 13.87 0 15.21 0.37ZM11.25 6.03L6.81 3.5L6.81 8.56L11.25 6.03Z" fill-opacity="1.000000" fill-rule="evenodd"/></symbol></svg>