<svg width="10.000000" height="17.000000" viewBox="0 0 10 17" fill="none" xmlns="http://www.w3.org/2000/svg" xmlns:xlink="http://www.w3.org/1999/xlink">
	<desc>
			Created with Pixso.
	</desc>
	<defs/>
	<path id="Path" d="M9.52 7.29C9.44 7.2 9.35 7.13 9.25 7.07L2.78 0.48C2.15 -0.17 1.13 -0.17 0.5 0.48C-0.13 1.12 -0.13 2.16 0.5 2.81L6.07 8.48L0.47 14.18C-0.16 14.83 -0.16 15.87 0.47 16.51C0.78 16.83 1.2 17 1.61 17C2.02 17 2.44 16.83 2.75 16.51L9.25 9.89C9.35 9.83 9.44 9.76 9.52 9.67C9.85 9.34 10 8.91 9.99 8.48C10 8.05 9.85 7.62 9.52 7.29Z" fill="#000000" fill-opacity="1.000000" fill-rule="nonzero"/>
</svg>
