<svg width="10.000000" height="17.000000" viewBox="0 0 10 17" fill="none" xmlns="http://www.w3.org/2000/svg" xmlns:xlink="http://www.w3.org/1999/xlink">
	<desc>
			Created with Pixso.
	</desc>
	<defs/>
	<path d="M0.47 7.29C0.55 7.2 0.64 7.13 0.74 7.07L7.21 0.48C7.84 -0.17 8.86 -0.17 9.49 0.48C10.12 1.12 10.12 2.16 9.49 2.81L3.92 8.48L9.52 14.18C10.15 14.83 10.15 15.87 9.52 16.51C9.21 16.83 8.79 17 8.38 17C7.97 17 7.55 16.83 7.24 16.51L0.74 9.89C0.64 9.83 0.55 9.76 0.47 9.67C0.14 9.34 -0.01 8.91 0 8.48C-0.01 8.05 0.14 7.62 0.47 7.29Z" fill="#000000" fill-opacity="1.000000" fill-rule="nonzero"/>
</svg>
