<?xml version="1.0" encoding="utf-8"?><svg viewBox="0 0 37 29" xmlns="http://www.w3.org/2000/svg" xmlns:xlink="http://www.w3.org/1999/xlink"><style>:root>svg{display:none}:root>svg:target{display:block}</style><svg fill="none" viewBox="0 0 15.5 15.5" id="Pinterest" xmlns="http://www.w3.org/2000/svg"><path d="M7.75 0c4.28 0 7.75 3.46 7.75 7.75a7.75 7.75 0 0 1-7.75 7.75c-.82 0-1.6-.1-2.32-.35.32-.5.78-1.34.97-2.03.1-.34.47-1.84.47-1.84.25.5 1 .9 1.78.9 2.35 0 4.03-2.15 4.03-4.81 0-2.56-2.09-4.5-4.78-4.5-3.34 0-5.12 2.25-5.12 4.69 0 1.15.59 2.56 1.56 3.03.16.06.25.03.28-.13 0-.09.16-.62.22-.87 0-.06 0-.16-.06-.22-.32-.37-.57-1.09-.57-1.78 0-1.69 1.29-3.34 3.5-3.34 1.88 0 3.22 1.28 3.22 3.15 0 2.1-1.06 3.53-2.43 3.53-.75 0-1.32-.62-1.16-1.37.22-.94.66-1.94.66-2.6 0-.59-.32-1.09-.97-1.09-.78 0-1.41.81-1.41 1.88 0 .68.22 1.15.22 1.15s-.75 3.25-.91 3.85c-.15.68-.09 1.62-.03 2.21A7.702 7.702 0 0 1 0 7.75C0 3.46 3.46 0 7.75 0Z" fill="#707070" fill-rule="evenodd"/></svg><svg fill="none" viewBox="0 0 26 26" id="close" xmlns="http://www.w3.org/2000/svg"><path d="M14.43 13 25.7 1.73c.39-.4.39-1.04 0-1.44-.4-.39-1.04-.39-1.44 0L13 11.56 1.73.29C1.33-.1.69-.1.29.29c-.39.4-.39 1.04 0 1.44L11.56 13 .29 24.26c-.39.4-.39 1.04 0 1.44a1.015 1.015 0 0 0 1.44 0L13 14.43 24.26 25.7a1.015 1.015 0 0 0 1.44 0c.39-.4.39-1.04 0-1.44L14.43 13Z" fill="#363838" fill-rule="evenodd"/><path d="M25.7 1.73c.39-.4.39-1.04 0-1.44-.4-.39-1.04-.39-1.44 0L13 11.56 1.73.29C1.33-.1.69-.1.29.29c-.39.4-.39 1.04 0 1.44L11.56 13 .29 24.26c-.39.4-.39 1.04 0 1.44a1.015 1.015 0 0 0 1.44 0L13 14.43 24.26 25.7a1.015 1.015 0 0 0 1.44 0c.39-.4.39-1.04 0-1.44L14.43 13 25.7 1.73Z"/></svg><svg fill="none" viewBox="0 0 16 12" id="envelope" xmlns="http://www.w3.org/2000/svg"><path d="M1.5 0h13c.81 0 1.5.68 1.5 1.5v9c0 .84-.69 1.5-1.5 1.5h-13C.65 12 0 11.34 0 10.5v-9C0 .68.65 0 1.5 0Zm13 2.78V1.5h-13v1.28c.68.59 1.81 1.47 4.18 3.34.1.07.22.17.34.27.56.47 1.36 1.13 1.98 1.11.58.02 1.37-.63 1.93-1.1.13-.11.25-.2.35-.28 2.37-1.87 3.5-2.75 4.22-3.34Zm-13 1.93v5.79h13V4.71c-.72.57-1.75 1.38-3.29 2.6-.12.09-.26.2-.41.32C10.08 8.22 9.08 9.02 8 9c-1.16.02-2.22-.85-2.93-1.43-.12-.1-.23-.19-.32-.26-1.54-1.22-2.57-2.03-3.25-2.6Z" fill="#363838" fill-rule="evenodd"/></svg><svg fill="none" viewBox="0 0 15.5 15.406" id="facebook" xmlns="http://www.w3.org/2000/svg"><path d="M7.75 0c4.28 0 7.75 3.46 7.75 7.75 0 3.87-2.85 7.09-6.57 7.65V10h1.82l.34-2.25H8.93V6.31c0-.63.32-1.22 1.28-1.22h.97V3.18s-.87-.15-1.75-.15c-1.75 0-2.9 1.09-2.9 3.03v1.69H4.56V10h1.97v5.4C2.81 14.84 0 11.62 0 7.75 0 3.46 3.46 0 7.75 0Z" fill="#707070" fill-rule="evenodd"/></svg><svg fill="none" viewBox="0 0 37 29" id="icon_menu" xmlns="http://www.w3.org/2000/svg"><path d="M35.45 26H1.54C.69 26 0 26.67 0 27.5c0 .82.69 1.5 1.54 1.5h33.91c.85 0 1.55-.68 1.55-1.5 0-.83-.7-1.5-1.55-1.5ZM35.5 0h-21c-.83 0-1.5.67-1.5 1.5 0 .82.67 1.5 1.5 1.5h21c.82 0 1.5-.68 1.5-1.5 0-.83-.68-1.5-1.5-1.5ZM35.45 9H1.54C.69 9 0 9.67 0 10.5c0 .82.69 1.5 1.54 1.5h33.91c.85 0 1.55-.68 1.55-1.5 0-.83-.7-1.5-1.55-1.5ZM35.5 18h-21c-.83 0-1.5.67-1.5 1.5 0 .82.67 1.5 1.5 1.5h21c.82 0 1.5-.68 1.5-1.5 0-.83-.68-1.5-1.5-1.5Z" fill="#000"/></svg><svg fill="none" viewBox="0 0 14 14" id="instagram" xmlns="http://www.w3.org/2000/svg"><path d="M12.82 1.17c.82.81 1.07 1.81 1.13 2.93.06 1.16.06 4.63 0 5.79-.06 1.12-.31 2.09-1.13 2.93-.81.82-1.81 1.07-2.93 1.13-1.16.06-4.63.06-5.79 0-1.12-.06-2.09-.31-2.93-1.13C.35 11.98.1 11.01.04 9.89c-.06-1.16-.06-4.63 0-5.79.06-1.12.31-2.12 1.13-2.93C2.01.35 2.98.1 4.1.04c1.16-.06 4.63-.06 5.79 0 1.12.06 2.12.31 2.93 1.13Zm-1.68 11.28c.59-.25 1.09-.72 1.31-1.35.32-.77.3-2.46.28-3.59V6.46c.02-1.11.04-2.81-.28-3.61-.25-.59-.72-1.09-1.31-1.31-.8-.32-2.5-.3-3.61-.28H6.48c-1.13-.02-2.82-.04-3.59.28-.63.25-1.1.72-1.35 1.31-.32.8-.3 2.5-.28 3.61v1.05c-.02 1.13-.04 2.82.28 3.59.25.63.72 1.1 1.35 1.35.77.32 2.46.3 3.59.28h1.05c1.11.02 2.81.04 3.61-.28Zm-.41-10.03c.47 0 .84.37.84.84s-.37.84-.84.84-.84-.37-.84-.84.37-.84.84-.84ZM3.42 6.98c0-1.97 1.59-3.59 3.59-3.59 1.97 0 3.59 1.62 3.59 3.59 0 2-1.62 3.59-3.59 3.59-2 0-3.59-1.59-3.59-3.59Zm1.25 0c0 1.31 1.06 2.34 2.34 2.34 1.28 0 2.31-1.03 2.31-2.34 0-1.28-1.03-2.31-2.31-2.31-1.31 0-2.34 1.03-2.34 2.31Z" fill="#707070" fill-rule="evenodd"/></svg><svg fill="none" viewBox="0 0 14 14" id="whatsapp" xmlns="http://www.w3.org/2000/svg"><path d="M6.96 0c1.88 0 3.63.75 4.91 2.06C13.18 3.37 14 5.09 14 6.96c0 3.82-3.19 6.94-7.04 6.94-1.15 0-2.28-.31-3.31-.84L0 14l.96-3.6a6.98 6.98 0 0 1-.93-3.47C.03 3.12 3.15 0 6.96 0ZM4.03 11.9c.9.53 1.9.81 2.93.81 3.19 0 5.85-2.59 5.85-5.75 0-1.56-.66-3-1.75-4.09C9.96 1.78 8.53 1.18 7 1.18c-3.19 0-5.79 2.6-5.79 5.75 0 1.1.32 2.16.88 3.1l.16.22-.6 2.12 2.19-.59.19.12Zm4.93-4.06c.16.06 1 .47 1.19.56.16.1.28.13.31.22.07.06.07.41-.09.81-.16.41-.84.78-1.16.82-.56.09-1 .06-2.09-.44-1.75-.75-2.87-2.5-2.97-2.6-.09-.12-.69-.93-.69-1.81 0-.84.44-1.25.6-1.44.15-.18.34-.21.47-.21h.31c.01 0 .02-.01.03-.01.11 0 .23 0 .38.32.12.34.5 1.19.53 1.28.03.09.06.19 0 .31-.14.3-.3.45-.41.56-.13.14-.2.21-.09.38.68 1.16 1.34 1.56 2.37 2.06.16.1.25.06.38-.03.09-.12.43-.53.53-.69.12-.18.25-.15.4-.09Z" fill="#707070" fill-rule="evenodd"/></svg><svg fill="none" viewBox="0 0 17.094 12" id="youtube" xmlns="http://www.w3.org/2000/svg"><path d="M15.21.37c.72.19 1.32.78 1.5 1.53.38 1.31.38 4.13.38 4.13s0 2.78-.38 4.12c-.18.75-.78 1.31-1.5 1.5-1.34.35-6.65.35-6.65.35s-5.35 0-6.69-.35a2.09 2.09 0 0 1-1.5-1.5C0 8.81 0 6.03 0 6.03S0 3.21.37 1.9c.19-.75.78-1.34 1.5-1.53C3.21 0 8.56 0 8.56 0s5.31 0 6.65.37Zm-3.96 5.66L6.81 3.5v5.06l4.44-2.53Z" fill="#707070" fill-rule="evenodd"/></svg></svg>