<?xml version="1.0" encoding="utf-8"?><svg viewBox="0 0 80 80" xmlns="http://www.w3.org/2000/svg" xmlns:xlink="http://www.w3.org/1999/xlink"><style>:root>svg{display:none}:root>svg:target{display:block}</style><svg fill="none" viewBox="0 0 15.5 15.5" id="Pinterest" xmlns="http://www.w3.org/2000/svg"><path d="M7.75 0c4.28 0 7.75 3.46 7.75 7.75a7.75 7.75 0 0 1-7.75 7.75c-.82 0-1.6-.1-2.32-.35.32-.5.78-1.34.97-2.03.1-.34.47-1.84.47-1.84.25.5 1 .9 1.78.9 2.35 0 4.03-2.15 4.03-4.81 0-2.56-2.09-4.5-4.78-4.5-3.34 0-5.12 2.25-5.12 4.69 0 1.15.59 2.56 1.56 3.03.16.06.25.03.28-.13 0-.09.16-.62.22-.87 0-.06 0-.16-.06-.22-.32-.37-.57-1.09-.57-1.78 0-1.69 1.29-3.34 3.5-3.34 1.88 0 3.22 1.28 3.22 3.15 0 2.1-1.06 3.53-2.43 3.53-.75 0-1.32-.62-1.16-1.37.22-.94.66-1.94.66-2.6 0-.59-.32-1.09-.97-1.09-.78 0-1.41.81-1.41 1.88 0 .68.22 1.15.22 1.15s-.75 3.25-.91 3.85c-.15.68-.09 1.62-.03 2.21A7.702 7.702 0 0 1 0 7.75C0 3.46 3.46 0 7.75 0Z" fill="#707070" fill-rule="evenodd"/></svg><svg fill="none" viewBox="0 0 26 26" id="close" xmlns="http://www.w3.org/2000/svg"><path d="M14.43 13 25.7 1.73c.39-.4.39-1.04 0-1.44-.4-.39-1.04-.39-1.44 0L13 11.56 1.73.29C1.33-.1.69-.1.29.29c-.39.4-.39 1.04 0 1.44L11.56 13 .29 24.26c-.39.4-.39 1.04 0 1.44a1.015 1.015 0 0 0 1.44 0L13 14.43 24.26 25.7a1.015 1.015 0 0 0 1.44 0c.39-.4.39-1.04 0-1.44L14.43 13Z" fill="#363838" fill-rule="evenodd"/><path d="M25.7 1.73c.39-.4.39-1.04 0-1.44-.4-.39-1.04-.39-1.44 0L13 11.56 1.73.29C1.33-.1.69-.1.29.29c-.39.4-.39 1.04 0 1.44L11.56 13 .29 24.26c-.39.4-.39 1.04 0 1.44a1.015 1.015 0 0 0 1.44 0L13 14.43 24.26 25.7a1.015 1.015 0 0 0 1.44 0c.39-.4.39-1.04 0-1.44L14.43 13 25.7 1.73Z"/></svg><svg fill="none" viewBox="0 0 16 12" id="envelope" xmlns="http://www.w3.org/2000/svg"><path d="M1.5 0h13c.81 0 1.5.68 1.5 1.5v9c0 .84-.69 1.5-1.5 1.5h-13C.65 12 0 11.34 0 10.5v-9C0 .68.65 0 1.5 0Zm13 2.78V1.5h-13v1.28c.68.59 1.81 1.47 4.18 3.34.1.07.22.17.34.27.56.47 1.36 1.13 1.98 1.11.58.02 1.37-.63 1.93-1.1.13-.11.25-.2.35-.28 2.37-1.87 3.5-2.75 4.22-3.34Zm-13 1.93v5.79h13V4.71c-.72.57-1.75 1.38-3.29 2.6-.12.09-.26.2-.41.32C10.08 8.22 9.08 9.02 8 9c-1.16.02-2.22-.85-2.93-1.43-.12-.1-.23-.19-.32-.26-1.54-1.22-2.57-2.03-3.25-2.6Z" fill="#363838" fill-rule="evenodd"/></svg><svg fill="none" viewBox="0 0 15.5 15.406" id="facebook" xmlns="http://www.w3.org/2000/svg"><path d="M7.75 0c4.28 0 7.75 3.46 7.75 7.75 0 3.87-2.85 7.09-6.57 7.65V10h1.82l.34-2.25H8.93V6.31c0-.63.32-1.22 1.28-1.22h.97V3.18s-.87-.15-1.75-.15c-1.75 0-2.9 1.09-2.9 3.03v1.69H4.56V10h1.97v5.4C2.81 14.84 0 11.62 0 7.75 0 3.46 3.46 0 7.75 0Z" fill="#707070" fill-rule="evenodd"/></svg><svg fill="none" viewBox="0 0 37 29" id="icon_menu" xmlns="http://www.w3.org/2000/svg"><path d="M35.45 26H1.54C.69 26 0 26.67 0 27.5c0 .82.69 1.5 1.54 1.5h33.91c.85 0 1.55-.68 1.55-1.5 0-.83-.7-1.5-1.55-1.5ZM35.5 0h-21c-.83 0-1.5.67-1.5 1.5 0 .82.67 1.5 1.5 1.5h21c.82 0 1.5-.68 1.5-1.5 0-.83-.68-1.5-1.5-1.5ZM35.45 9H1.54C.69 9 0 9.67 0 10.5c0 .82.69 1.5 1.54 1.5h33.91c.85 0 1.55-.68 1.55-1.5 0-.83-.7-1.5-1.55-1.5ZM35.5 18h-21c-.83 0-1.5.67-1.5 1.5 0 .82.67 1.5 1.5 1.5h21c.82 0 1.5-.68 1.5-1.5 0-.83-.68-1.5-1.5-1.5Z" fill="#000"/></svg><svg fill="none" viewBox="0 0 14 14" id="instagram" xmlns="http://www.w3.org/2000/svg"><path d="M12.82 1.17c.82.81 1.07 1.81 1.13 2.93.06 1.16.06 4.63 0 5.79-.06 1.12-.31 2.09-1.13 2.93-.81.82-1.81 1.07-2.93 1.13-1.16.06-4.63.06-5.79 0-1.12-.06-2.09-.31-2.93-1.13C.35 11.98.1 11.01.04 9.89c-.06-1.16-.06-4.63 0-5.79.06-1.12.31-2.12 1.13-2.93C2.01.35 2.98.1 4.1.04c1.16-.06 4.63-.06 5.79 0 1.12.06 2.12.31 2.93 1.13Zm-1.68 11.28c.59-.25 1.09-.72 1.31-1.35.32-.77.3-2.46.28-3.59V6.46c.02-1.11.04-2.81-.28-3.61-.25-.59-.72-1.09-1.31-1.31-.8-.32-2.5-.3-3.61-.28H6.48c-1.13-.02-2.82-.04-3.59.28-.63.25-1.1.72-1.35 1.31-.32.8-.3 2.5-.28 3.61v1.05c-.02 1.13-.04 2.82.28 3.59.25.63.72 1.1 1.35 1.35.77.32 2.46.3 3.59.28h1.05c1.11.02 2.81.04 3.61-.28Zm-.41-10.03c.47 0 .84.37.84.84s-.37.84-.84.84-.84-.37-.84-.84.37-.84.84-.84ZM3.42 6.98c0-1.97 1.59-3.59 3.59-3.59 1.97 0 3.59 1.62 3.59 3.59 0 2-1.62 3.59-3.59 3.59-2 0-3.59-1.59-3.59-3.59Zm1.25 0c0 1.31 1.06 2.34 2.34 2.34 1.28 0 2.31-1.03 2.31-2.34 0-1.28-1.03-2.31-2.31-2.31-1.31 0-2.34 1.03-2.34 2.31Z" fill="#707070" fill-rule="evenodd"/></svg><svg fill="none" viewBox="0 0 80 80" id="play" xmlns="http://www.w3.org/2000/svg"><defs><filter id="ga" x="26.75" y="21.343" width="36.25" height="40.314" filterUnits="userSpaceOnUse" color-interpolation-filters="sRGB"><feFlood flood-opacity="0" result="BackgroundImageFix"/><feColorMatrix in="SourceAlpha" values="0 0 0 0 0 0 0 0 0 0 0 0 0 0 0 0 0 0 127 0" result="hardAlpha"/><feOffset dy="1"/><feGaussianBlur stdDeviation="1.333"/><feComposite in2="hardAlpha" operator="out" k2="-1" k3="1"/><feColorMatrix values="0 0 0 0 0 0 0 0 0 0 0 0 0 0 0 0 0 0 0.85 0"/><feBlend in2="BackgroundImageFix" result="effect_dropShadow_1"/><feBlend in="SourceGraphic" in2="effect_dropShadow_1" result="shape"/></filter></defs><path d="M40 80c22.09 0 40-17.91 40-40C80 17.9 62.09 0 40 0 17.9 0 0 17.9 0 40c0 22.09 17.9 40 40 40Z" fill="#363838" fill-opacity=".4" fill-rule="evenodd"/><path d="M80 40C80 17.9 62.09 0 40 0 17.9 0 0 17.9 0 40c0 22.09 17.9 40 40 40 22.09 0 40-17.91 40-40Z"/><g filter="url(#ga)"><path d="M58.5 41.36 32.25 56.52c-.67.38-1.5-.1-1.5-.87V25.34c0-.77.83-1.25 1.5-.87L58.5 39.63c.66.38.66 1.35 0 1.73Z" fill="#FFF" fill-opacity=".93" fill-rule="evenodd"/></g></svg><svg fill="none" viewBox="0 0 17 17" id="search-icon" xmlns="http://www.w3.org/2000/svg"><path d="m16.792 15.79-4.834-4.833a6.697 6.697 0 0 0 1.5-4.228C13.458 3.02 10.44 0 6.73 0A6.737 6.737 0 0 0 0 6.73a6.737 6.737 0 0 0 6.729 6.728c1.6 0 3.07-.563 4.227-1.5l4.835 4.835a.705.705 0 0 0 1.001 0 .707.707 0 0 0 0-1.002ZM1.417 6.73a5.318 5.318 0 0 0 5.312 5.312 5.318 5.318 0 0 0 5.312-5.313A5.318 5.318 0 0 0 6.73 1.417a5.318 5.318 0 0 0-5.312 5.312Z" clip-rule="evenodd" fill="#5A5A5A" fill-rule="evenodd"/></svg><svg fill="none" viewBox="0 0 14 14" id="whatsapp" xmlns="http://www.w3.org/2000/svg"><path d="M6.96 0c1.88 0 3.63.75 4.91 2.06C13.18 3.37 14 5.09 14 6.96c0 3.82-3.19 6.94-7.04 6.94-1.15 0-2.28-.31-3.31-.84L0 14l.96-3.6a6.98 6.98 0 0 1-.93-3.47C.03 3.12 3.15 0 6.96 0ZM4.03 11.9c.9.53 1.9.81 2.93.81 3.19 0 5.85-2.59 5.85-5.75 0-1.56-.66-3-1.75-4.09C9.96 1.78 8.53 1.18 7 1.18c-3.19 0-5.79 2.6-5.79 5.75 0 1.1.32 2.16.88 3.1l.16.22-.6 2.12 2.19-.59.19.12Zm4.93-4.06c.16.06 1 .47 1.19.56.16.1.28.13.31.22.07.06.07.41-.09.81-.16.41-.84.78-1.16.82-.56.09-1 .06-2.09-.44-1.75-.75-2.87-2.5-2.97-2.6-.09-.12-.69-.93-.69-1.81 0-.84.44-1.25.6-1.44.15-.18.34-.21.47-.21h.31c.01 0 .02-.01.03-.01.11 0 .23 0 .38.32.12.34.5 1.19.53 1.28.03.09.06.19 0 .31-.14.3-.3.45-.41.56-.13.14-.2.21-.09.38.68 1.16 1.34 1.56 2.37 2.06.16.1.25.06.38-.03.09-.12.43-.53.53-.69.12-.18.25-.15.4-.09Z" fill="#707070" fill-rule="evenodd"/></svg><svg fill="none" viewBox="0 0 38 34" id="works-sofa" xmlns="http://www.w3.org/2000/svg"><path d="M36.33 9.63h-.588V5.38c0-.343-.25-.622-.557-.622-.308 0-.557.279-.557.623v4.25h-.588c-.92 0-1.67.837-1.67 1.866v2.98l-7.643-.002h-.002c-4.948-.002-5.048-.002-5.144.02l-.024.006V2.862c0-.892.65-1.618 1.447-1.618H33.18c.707 0 1.306.564 1.426 1.34.052.34.34.566.644.508.302-.058.505-.38.453-.719C35.492.998 34.431 0 33.181 0H21.004C20.193 0 19.47.424 19 1.084 18.53.424 17.807 0 16.996 0H4.82c-1.412 0-2.56 1.284-2.56 2.862V9.63h-.59C.75 9.63 0 10.468 0 11.497V23.04c0 1.715 1.249 3.11 2.783 3.11h1.734v6.102c0 .964.701 1.748 1.564 1.748.816 0 1.502-.713 1.56-1.624l.395-6.225h3.171c.308 0 .557-.28.557-.623 0-.343-.249-.622-.556-.622H2.782c-.92 0-1.67-.837-1.67-1.867V11.497c0-.343.25-.622.557-.622h2.29c.269 0 .494.213.545.497.008.04.012.082.012.125v2.98H3.62c-.748 0-1.356.68-1.356 1.516v3.592c0 .837.608 1.517 1.356 1.517h30.76c.748 0 1.356-.68 1.356-1.517v-3.592c0-.837-.608-1.517-1.356-1.517h-.897v-2.98c0-.042.004-.084.012-.124.051-.284.277-.497.545-.497h2.29c.307 0 .557.279.557.622v11.542c0 1.03-.75 1.867-1.67 1.867H13.805c-.307 0-.556.279-.556.622 0 .344.249.623.556.623h16.159l.396 6.225c.058.91.742 1.624 1.56 1.624.862 0 1.563-.784 1.563-1.748v-6.101h1.734c1.535 0 2.783-1.396 2.783-3.111V11.497c0-1.03-.749-1.867-1.67-1.867Zm-33.01.007h.591c.924 0 1.676.838 1.676 1.869v2.982l7.694-.002c4.975-.001 5.06-.001 5.139.02a.39.39 0 0 0 .027.006V2.863c0-.893-.652-1.62-1.453-1.62H4.773c-.8 0-1.453.727-1.453 1.62v6.774Zm0 9.993v-3.601c0-.15.11-.273.245-.273h14.637c.135 0 .245.122.245.273v3.873H3.565c-.135 0-.245-.122-.245-.272Zm31.36 0c0 .15-.11.272-.245.272H19.553V16.03c0-.15.11-.273.245-.273h14.637c.135 0 .245.122.245.273v3.6ZM6.675 32.286l.335-6.164H5.903v6.128c0 .28.173.506.387.506.201 0 .37-.206.385-.47Zm25.035.47c.214 0 .387-.227.387-.506v-6.128H30.99l.335 6.164c.014.264.184.47.385.47Z" clip-rule="evenodd" fill="#000" fill-rule="evenodd"/></svg><svg fill="none" viewBox="0 0 38 26" id="works-tape" xmlns="http://www.w3.org/2000/svg"><path d="M37.184 19.13H23.67v-3.818h2.188c.316 0 .588-.13.767-.365.186-.245.252-.58.188-.942l-.762-4.297c-.102-.572-.496-.957-.98-.957h-2.013C21.484 3.671 17.048 0 11.835 0 5.309 0 0 5.752 0 12.822c0 7.07 5.31 12.822 11.835 12.822h10.814c.563 0 1.02-.495 1.02-1.104v-1.107h4.975c.308 0 .557-.27.557-.604 0-.334-.25-.605-.557-.605H23.67V20.34h13.217v1.886H30.91c-.307 0-.556.27-.556.604 0 .334.249.604.556.604h5.977v1.963c0 .334.249.604.556.604.308 0 .557-.27.557-.604v-5.38c0-.489-.366-.886-.816-.886ZM1.127 13.427H3.271c.15 0 .356-.015.527-.202.184-.204.179-.446.176-.575a2.304 2.304 0 0 1 0-.143 8.96 8.96 0 0 1 1.374-4.506.638.638 0 0 0-.142-.84.53.53 0 0 0-.774.154 10.22 10.22 0 0 0-1.56 4.903H1.127C1.41 6.294 5.81 1.528 11.278 1.224v1.89c-1.753.115-3.417.777-4.826 1.921a.64.64 0 0 0-.113.846.525.525 0 0 0 .779.122c1.287-1.044 2.817-1.63 4.425-1.693.052-.002.094-.001.127 0h.005c.122.002.344.006.53-.193.19-.204.188-.446.187-.622v-2.27c5.654.314 10.165 5.396 10.165 11.597v8.514H12.262c-.542 0-.984.479-.984 1.067v2.017c-5.469-.305-9.868-5.07-10.15-10.994Zm24.57.676L24.96 9.96h-1.589c.195.92.298 1.879.298 2.862v1.281h2.026ZM12.391 24.436h10.165v-1.891H12.392v1.89Z" clip-rule="evenodd" fill="#000" fill-rule="evenodd"/><path d="M17.198 19.933h-5.322c-3.493 0-6.334-2.916-6.334-6.5s2.841-6.5 6.334-6.5c3.492 0 6.332 2.916 6.332 6.5v5.46c0 .574-.453 1.04-1.01 1.04Zm-.116-6.5c0-2.946-2.335-5.342-5.206-5.342-2.872 0-5.209 2.396-5.209 5.341 0 2.947 2.337 5.344 5.209 5.344h5.207v-5.344Z" clip-rule="evenodd" fill="#000" fill-rule="evenodd"/><path d="M13.898 15.6H9.852c-.63 0-1.143-.489-1.143-1.09v-2.156c0-.6.512-1.087 1.143-1.087h4.046c.63 0 1.144.487 1.144 1.087v2.156c0 .601-.513 1.09-1.144 1.09Zm-.127-3.123H9.98v1.912h3.79v-1.912Z" clip-rule="evenodd" fill="#000" fill-rule="evenodd"/></svg><svg fill="none" viewBox="0 0 41 42" id="works-tool" xmlns="http://www.w3.org/2000/svg"><path d="m7.358 35 31.185.013A2.462 2.462 0 0 1 41 37.474v2.065A2.462 2.462 0 0 1 38.543 42H22.438a.602.602 0 0 1 0-1.205h12.077v-1.686H7.977v1.687l11.479-.001a.601.601 0 0 1 0 1.205l-12.221-.011c-.543 0-.875-.039-1.639-.381 0 0-3.395-1.52-5.05-2.263a.92.92 0 0 1-.546-.84c0-.368.21-.69.548-.84l5.048-2.26c.817-.366 1.148-.412 1.762-.404Zm.619 2.904v-1.686h26.538v1.686H7.977Zm30.566 2.89c.692 0 1.256-.562 1.256-1.255v-2.065c0-.692-.564-1.255-1.256-1.255h-2.827v4.576h2.827ZM4.687 37.133v2.749c.438.196 1.91.843 2.088.885v-4.518c-.178.041-2.088.884-2.088.884Zm-1.202.538v1.672c-.622-.278-1.244-.556-1.866-.836l1.866-.836ZM19.941 31.998 1.063 32A1.058 1.058 0 0 1 0 30.949V5.677c0-.58.477-1.051 1.063-1.051h2.646V.992c-.003-.413.224-.777.579-.924.354-.147.75-.053 1.059.252l4.367 4.306h23.98V3.159c0-.57.471-1.033 1.05-1.033h2.725C39.416 2.126 41 3.689 41 5.611v22.904c0 1.92-1.584 3.483-3.531 3.483h-14.69a.615.615 0 0 1-.617-.611c0-.338.277-.611.618-.611h14.689c1.265 0 2.295-1.014 2.295-2.26 0-1.247-1.03-2.261-2.295-2.261h-2.725a1.043 1.043 0 0 1-1.05-1.036V5.848h-22.74l20.092 19.81c.308.304.405.694.259 1.042-.147.35-.515.576-.939.576H4.727a1.013 1.013 0 0 1-1.019-1.005V5.848H1.237v24.93l18.704-.002c.342 0 .619.273.619.61a.615.615 0 0 1-.619.612Zm9.756-5.944L4.945 1.65v24.405h2.653v-.858c0-.338.277-.611.618-.611.342 0 .618.273.618.61v.858h2.655V24.39c0-.337.277-.61.618-.61.342 0 .619.273.619.61v1.666h2.652v-.858c0-.338.277-.611.619-.611.34 0 .618.273.618.61v.858h2.655V24.39c0-.337.276-.61.618-.61.341 0 .618.273.618.61v1.666h2.653v-.858c0-.338.277-.611.618-.611.342 0 .618.273.618.61v.858h5.302Zm5.235-22.706h2.537c1.265 0 2.294 1.015 2.294 2.263V25.87a3.544 3.544 0 0 0-2.294-.838h-2.537V3.348Z" clip-rule="evenodd" fill="#000" fill-rule="evenodd"/><path d="M10.489 22h6.199c.233 0 .668 0 .835-.413.163-.406-.123-.699-.331-.913l-6.137-6.283c-.208-.215-.494-.51-.89-.341-.403.17-.403.616-.403.856v6.348c0 .453.285.746.727.746Zm5.292-1.148-4.9-5.017v5.017h4.9Z" clip-rule="evenodd" fill="#000" fill-rule="evenodd"/></svg><svg fill="none" viewBox="0 0 17.094 12" id="youtube" xmlns="http://www.w3.org/2000/svg"><path d="M15.21.37c.72.19 1.32.78 1.5 1.53.38 1.31.38 4.13.38 4.13s0 2.78-.38 4.12c-.18.75-.78 1.31-1.5 1.5-1.34.35-6.65.35-6.65.35s-5.35 0-6.69-.35a2.09 2.09 0 0 1-1.5-1.5C0 8.81 0 6.03 0 6.03S0 3.21.37 1.9c.19-.75.78-1.34 1.5-1.53C3.21 0 8.56 0 8.56 0s5.31 0 6.65.37Zm-3.96 5.66L6.81 3.5v5.06l4.44-2.53Z" fill="#707070" fill-rule="evenodd"/></svg></svg>