<svg width="26" height="26" fill="none" xmlns="http://www.w3.org/2000/svg"><path d="M14.43 13L25.7 1.73c.39-.4.39-1.04 0-1.44-.4-.39-1.04-.39-1.44 0L13 11.56 1.73.29C1.33-.1.69-.1.29.29c-.39.4-.39 1.04 0 1.44L11.56 13 .29 24.26c-.39.4-.39 1.04 0 1.44a1.015 1.015 0 001.44 0L13 14.43 24.26 25.7a1.015 1.015 0 001.44 0c.39-.4.39-1.04 0-1.44L14.43 13z" fill="#363838" fill-rule="evenodd"/><path d="M25.7 1.73c.39-.4.39-1.04 0-1.44-.4-.39-1.04-.39-1.44 0L13 11.56 1.73.29C1.33-.1.69-.1.29.29c-.39.4-.39 1.04 0 1.44L11.56 13 .29 24.26c-.39.4-.39 1.04 0 1.44a1.015 1.015 0 001.44 0L13 14.43 24.26 25.7a1.015 1.015 0 001.44 0c.39-.4.39-1.04 0-1.44L14.43 13 25.7 1.73z"/></svg>