<svg width="16" height="12" fill="none" xmlns="http://www.w3.org/2000/svg"><path d="M1.5 0h13c.81 0 1.5.68 1.5 1.5v9c0 .84-.69 1.5-1.5 1.5h-13C.65 12 0 11.34 0 10.5v-9C0 .68.65 0 1.5 0zm13 2.78V1.5h-13v1.28c.68.59 1.81 1.47 4.18 3.34.1.07.22.17.34.27.56.47 1.36 1.13 1.98 1.11.58.02 1.37-.63 1.93-1.1.13-.11.25-.2.35-.28 2.37-1.87 3.5-2.75 4.22-3.34zm-13 1.93v5.79h13V4.71c-.72.57-1.75 1.38-3.29 2.6-.12.09-.26.2-.41.32C10.08 8.22 9.08 9.02 8 9c-1.16.02-2.22-.85-2.93-1.43-.12-.1-.23-.19-.32-.26-1.54-1.22-2.57-2.03-3.25-2.6z" fill="#363838" fill-rule="evenodd"/></svg>