<svg width="14" height="14" fill="none" xmlns="http://www.w3.org/2000/svg"><path d="M12.82 1.17c.82.81 1.07 1.81 1.13 2.93.06 1.16.06 4.63 0 5.79-.06 1.12-.31 2.09-1.13 2.93-.81.82-1.81 1.07-2.93 1.13-1.16.06-4.63.06-5.79 0-1.12-.06-2.09-.31-2.93-1.13C.35 11.98.1 11.01.04 9.89c-.06-1.16-.06-4.63 0-5.79.06-1.12.31-2.12 1.13-2.93C2.01.35 2.98.1 4.1.04c1.16-.06 4.63-.06 5.79 0 1.12.06 2.12.31 2.93 1.13zm-1.68 11.28c.59-.25 1.09-.72 1.31-1.35.32-.77.3-2.46.28-3.59V6.46c.02-1.11.04-2.81-.28-3.61-.25-.59-.72-1.09-1.31-1.31-.8-.32-2.5-.3-3.61-.28H6.48c-1.13-.02-2.82-.04-3.59.28-.63.25-1.1.72-1.35 1.31-.32.8-.3 2.5-.28 3.61v1.05c-.02 1.13-.04 2.82.28 3.59.25.63.72 1.1 1.35 1.35.77.32 2.46.3 3.59.28h1.05c1.11.02 2.81.04 3.61-.28zm-.41-10.03c.47 0 .84.37.84.84s-.37.84-.84.84-.84-.37-.84-.84.37-.84.84-.84zM3.42 6.98c0-1.97 1.59-3.59 3.59-3.59 1.97 0 3.59 1.62 3.59 3.59 0 2-1.62 3.59-3.59 3.59-2 0-3.59-1.59-3.59-3.59zm1.25 0c0 1.31 1.06 2.34 2.34 2.34 1.28 0 2.31-1.03 2.31-2.34 0-1.28-1.03-2.31-2.31-2.31-1.31 0-2.34 1.03-2.34 2.31z" fill="#707070" fill-rule="evenodd"/></svg>